# xmcd
#
# Track frame offsets: 
#        150
#        23150
#        38802
#        59621
#        78012
#        94680
#        114722
#        142035
#        162241
#        181685
#        199973
#        219530
#
# Disc length: 3176 seconds
#
# Revision: 0
# Processed by: cddbd v1.5.2PL0 Copyright (c) Steve Scherf et al.
# Submitted via: ExactAudioCopy v1.0b4
#
DISCID=a20c660c
DTITLE=Ôtis Spann - Candid Spann Vol 1 (LP)
DYEAR=1960
DGENRE=Blues
TTITLE0=The Hard Way
TTITLE1=Take A Little Walk With Me
TTITLE2=Otis In The Dark
TTITLE3=Baby Child (Unissued)
TTITLE4=Little Boy Blue
TTITLE5=Country Boy
TTITLE6=Beat Up Team
TTITLE7=My Daily Wish
TTITLE8=Great Northern Stomp
TTITLE9=I Got Rambling On My Mind
TTITLE10=Worried Life Blues
TTITLE11=Instrumental Boogie (Unissued)
EXTD=
EXTT0=
EXTT1=
EXTT2=
EXTT3=
EXTT4=
EXTT5=
EXTT6=
EXTT7=
EXTT8=
EXTT9=
EXTT10=
EXTT11=
PLAYORDER=
